<svg width="714" height="694" viewBox="0 0 714 694" fill="none" xmlns="http://www.w3.org/2000/svg">
<rect x="33" y="33" width="648" height="628" rx="48" stroke="#004AAD" stroke-width="66" stroke-linejoin="round"/>
<rect x="138.25" y="273.056" width="100.704" height="315.362" rx="7" fill="#004AAD"/>
<rect x="281.356" y="273.056" width="100.704" height="315.362" rx="7" fill="#004AAD"/>
<rect x="485.413" y="394.96" width="103.354" height="193.457" rx="7" fill="#004AAD"/>
<circle cx="188.602" cy="185.602" r="63.6023" fill="#004AAD"/>
<path d="M391.335 299.557L380.734 311.482V413.511L383.384 404.235L386.035 394.96L388.685 385.685L395.31 376.409L400.61 369.784L407.235 363.159L416.511 356.534L424.461 355.209H445.662L448.312 356.534L456.262 357.859L462.887 361.834L469.513 367.134L477.463 377.734L482.763 389.66L485.413 408.211L486.738 413.511H588.767L587.442 388.335L584.792 375.084L582.142 361.834L579.492 348.583L575.517 337.983L571.541 327.383L564.916 314.132L556.966 303.532L546.365 291.606L533.115 283.656L519.864 277.031L507.939 273.056L496.014 271.731H450.962L433.736 274.381L417.836 279.681L403.26 288.956L391.335 299.557Z" fill="#004AAD"/>
</svg>
