<svg width="251" height="250" viewBox="0 0 251 250" fill="none" xmlns="http://www.w3.org/2000/svg">
<path d="M165.558 83.4174C134.036 78.992 116.19 79.0218 84.0577 83.4174C79.3755 115.677 79.4409 133.852 84.0577 166.417C116.387 170.795 134.339 170.771 166.058 166.417C170.756 133.539 170.609 115.373 165.558 83.4174Z" fill="#004AAD"/>
<path d="M177.558 164.417C181.97 133.918 181.885 116.566 177.058 85.4174C206.054 91.7599 221.645 96.347 248.558 105.917C250.761 120.428 250.747 128.756 248.558 143.917C221.035 153.466 205.483 157.911 177.558 164.417Z" fill="#004AAD"/>
<path d="M175.558 73.4174C169.795 46.039 165.505 30.8279 156.058 3.91745C207.387 21.8535 231.272 47.1402 246.058 93.9174C219.506 84.4171 204.049 79.9611 175.558 73.4174Z" fill="#004AAD"/>
<path d="M164.058 177.917C133.597 182.258 116.517 182.352 86.0577 178.417C91.6373 205.59 96.3526 220.942 106.058 248.417C121.037 250.207 129.355 250.183 144.058 248.417C153.189 221.264 157.925 205.93 164.058 177.917Z" fill="#004AAD"/>
<path d="M94.0577 245.917C84.6329 219.117 80.4277 203.887 74.5577 176.417C46.6573 170.482 31.3204 166.346 4.55768 157.417C22.537 206.659 41.9122 226.228 94.0577 245.917Z" fill="#004AAD"/>
<path d="M246.058 155.917C219.282 165.221 203.97 169.641 176.058 175.917C169.829 203.792 165.535 219.106 156.558 245.917C209.304 225.722 228.754 205.794 246.058 155.917Z" fill="#03989E"/>
<path d="M72.5577 164.917C68.6311 134.271 68.4988 116.879 72.5577 85.4174C44.9181 92.162 29.3712 96.6701 1.55769 105.917C-0.561849 121.148 -0.47617 129.687 1.55769 144.917C29.0919 153.862 44.6331 158.269 72.5577 164.917Z" fill="#03989E"/>
<path d="M94.0577 3.91745C84.0522 30.8683 79.785 46.1813 74.5577 73.9174C46.4087 79.838 30.9603 84.1742 4.05768 93.9174C24.1261 41.3857 43.8386 21.688 94.0577 3.91745Z" fill="#03989E"/>
<path d="M164.058 71.9175C133.334 67.8232 116.235 67.8414 86.0577 71.9175C91.9611 43.8806 96.4133 28.4329 106.558 1.41746C120.792 -0.489856 129.01 -0.455035 144.058 1.41746C153.095 29.016 157.529 44.4543 164.058 71.9175Z" fill="#03989E"/>
</svg>
