<svg width="220" height="205" viewBox="0 0 220 205" fill="none" xmlns="http://www.w3.org/2000/svg">
<rect width="220" height="205" fill="white"/>
<circle cx="113.5" cy="103.5" r="64.5" fill="#CBF1FE"/>
<rect x="76" y="126" width="72" height="60" fill="#FFFDFD"/>
<path d="M148 126V132.5L148 186H75.1498V126H148Z" stroke="#09533C" stroke-width="2" stroke-linejoin="round"/>
<path d="M111 126V136" stroke="#09533C" stroke-width="2" stroke-linecap="round" stroke-linejoin="round"/>
<path d="M99 158.997H148" stroke="#09533C" stroke-width="2" stroke-linecap="round" stroke-linejoin="round"/>
<path d="M88 159L76 159" stroke="#09533C" stroke-width="2" stroke-linecap="round" stroke-linejoin="round"/>
<path d="M111 164V146" stroke="#09533C" stroke-width="2" stroke-linecap="round" stroke-linejoin="round"/>
<path d="M143 139L147 143L115.5 174.5L111.5 170.5L143 139Z" fill="#FFC965"/>
<path d="M149 133L153.5 137L148 142.5L143.5 138L149 133Z" fill="#64BCFB"/>
<path d="M149 132L145 136L132.5 148L110.5 170.5L106 180L115.5 175.5L154 137L153.5 136.5L149 132Z" stroke="#09533C" stroke-width="2" stroke-linejoin="round"/>
<path d="M111 170.5L115.5 175" stroke="#09533C" stroke-width="2"/>
<path d="M143 138L148 143" stroke="#09533C" stroke-width="2"/>
<path d="M54 58.5L56.5 59.5L59 58.5L61.5 60L64.5 59.5L69.5 58.5L82 76.5H41.5L54 58.5Z" fill="#FFC965"/>
<path d="M74.9506 59L77 59.5L79 60L81 59L84 59.5L86.0494 59L95 77H82.5L80.5 74L73 63L74.9506 59Z" fill="#FFC965"/>
<path d="M62 47.5L69 58L66.5 59.5L64 59L61.5 60L59.5 58L57 59.5L54.5 58L62 47.5Z" fill="white"/>
<path d="M62 47.5L69 58L66.5 59.5L64 59L61.5 60L59.5 58L57 59.5L54.5 58L62 47.5Z" fill="white"/>
<path d="M81.1379 52L85 58.72L83.6207 59.68L82.2414 59.36H80.5L79.7586 58.72L78.3793 59.68L77 58.72L81.1379 52Z" fill="white"/>
<path d="M81.1379 52L85 58.72L83.6207 59.68L82.2414 59.36H80.5L79.7586 58.72L78.3793 59.68L77 58.72L81.1379 52Z" fill="white"/>
<path d="M54.5 58.5L56 59.5L57 60L58 59L59 58H59.5H60L60.5 59L61 60.5H61.5L62.5 60L63 59.5L63.5 59H64L65 59.5L65.5 60H66L67 59.5L69 58" stroke="#09533C" stroke-width="2" stroke-linejoin="round"/>
<path d="M76.5 58.5L78 60L78.5 60.5L79.5 60L80 59.5L81 59H82L82.5 59.5L83.5 60H84L85 59.5" stroke="#09533C" stroke-width="2" stroke-linejoin="round"/>
<path d="M81 51L81.8734 50.5129C81.7037 50.2086 81.3878 50.0146 81.0396 50.0008C80.6915 49.987 80.3612 50.1554 80.1679 50.4453L81 51ZM73.8321 63.5547L81.8321 51.5547L80.1679 50.4453L72.1679 62.4453L73.8321 63.5547ZM80.1266 51.4871L94.6266 77.4871L96.3734 76.5129L81.8734 50.5129L80.1266 51.4871Z" fill="#09533C"/>
<path d="M95.5 76.5H81.5" stroke="#09533C" stroke-width="2"/>
<path d="M62 47L41 76.5H82.5L62 47Z" stroke="#09533C" stroke-width="2" stroke-linejoin="round"/>
<path d="M31 77L107 77.5L109.5 80L117.5 104.5L119.5 111L116 114.5H23.5L19 112.5V108L23 96.5L28.5 80L31 77Z" fill="white"/>
<path d="M54 91V88V85L60 83H65.5L69 84L71.5 85L73.5 87L73 90L73.5 95L70.5 97.5L61.5 98.5L53.5 97L50.5 93.5L54 91Z" fill="#64BCFB"/>
<path d="M105.5 77H83H40H37H33H32H31L30.5 77.5L30 78L29.5 78.5L29 79L28.5 80L27.5 83L24.5 92L19 108L18.5 109.5V110.5L19 111.5L19.5 112.5L20 113L21 114L22.5 114.5H107H115L116.5 114L118 113L119 111.5L119.5 110L119 108.5L109.5 80L108.5 78.5L107 77.5L105.5 77Z" stroke="#09533C" stroke-width="2" stroke-linejoin="round"/>
<path d="M26 89.5L29 88L32.5 86.5L35 86L37.5 85.5H40.5L45.5 86" stroke="#09533C" stroke-width="2" stroke-linecap="round" stroke-linejoin="round"/>
<path d="M22.5 100L25 99L29 98L31.5 97.5H33.5H35H37.5L39.5 98L43 99L46 100L48.5 101.5L51.5 103.5L54.5 105.5L56 106.5L58 107.5L60 108.5L61.5 109H63H65H67L69.5 108.5L72 107.5L75.5 105.5L78.5 102L80 99L80.5 97.5L81 94.5L82 91L83 87.5L84.5 84L86 81.5L87.5 79.5L89.5 77.5" stroke="#09533C" stroke-width="2" stroke-linecap="round" stroke-linejoin="round"/>
<path d="M65.5 83H61L58 83.5L56 84L55 84.5L54 85.5L53.5 86L54 88V89.5V91L53 92L51.5 92.5L51 93L50.5 93.5V94.5L51 95L52 96L54 97L56.5 98L59.5 98.5H62.5H67L68.5 98L70 97.5L71.5 96.5L72.5 95.5L73 95L73.5 94L73 92.5V91.5V90V89L73.5 88V87.5L73 86.5L72.5 86L71.5 85L70.5 84.5" stroke="#09533C" stroke-width="2" stroke-linecap="round" stroke-linejoin="round"/>
<path d="M91 114.5L94.5 111.5L97 108.5L98 106L98.5 104V101.5L99 99L100 96.5L101.5 95L103 94L105 93L106.5 92.5L108 92H110H113" stroke="#09533C" stroke-width="2" stroke-linecap="round" stroke-linejoin="round"/>
<path d="M116 101L114.5 101.5H112.5L110 101L108 100.5L105.5 100H103.5L102 100.5L100.5 101L99.5 102" stroke="#09533C" stroke-width="2" stroke-linecap="round" stroke-linejoin="round"/>
<path d="M123 33L141 51.5L120.5 73L102 54L123 33Z" fill="#64BCFB"/>
<path d="M166 77L186 97L165 118.5L145.5 98.5L166 77Z" fill="#64BCFB"/>
<path d="M134 69L148.5 84L134.5 99L119.5 84L134 69Z" fill="#FFC965"/>
<path d="M151.5 51L154.5 53.5L160 49L168.5 57.5L163.5 63L166 66L152.5 80.5L150.5 79L147 82L136 70.5L139 67.5L138 65.5L151.5 51Z" fill="white"/>
<path d="M158 32.5L184 59L175 59.5L167 56L160 48.5L158 41V32.5Z" fill="#FFC965"/>
<path d="M175 49L184.5 33L169 43" stroke="#09533C" stroke-width="2" stroke-linecap="round" stroke-linejoin="round"/>
<path d="M158 32L158.714 31.2995C158.455 31.0359 158.072 30.9364 157.717 31.0408C157.363 31.1452 157.095 31.4365 157.021 31.7983L158 32ZM184.5 59L184.779 59.9603C185.117 59.8622 185.378 59.5937 185.467 59.2533C185.556 58.9129 185.46 58.5507 185.214 58.2995L184.5 59ZM157.021 31.7983C153.393 49.4184 168.444 64.7028 184.779 59.9603L184.221 58.0397C169.556 62.2972 155.607 48.5816 158.979 32.2017L157.021 31.7983ZM157.286 32.7005L183.786 59.7005L185.214 58.2995L158.714 31.2995L157.286 32.7005Z" fill="#09533C"/>
<path d="M181 22C188.332 23.1874 194.687 29.8613 196 36.5" stroke="#09533C" stroke-width="2" stroke-linecap="round" stroke-linejoin="round"/>
<path d="M182.5 27C186.995 28.4334 188.879 30.2586 191 35.5" stroke="#09533C" stroke-width="2" stroke-linecap="round" stroke-linejoin="round"/>
<path d="M166.5 66L151.5 50.5L137.5 65.5L152.5 80.5L166.5 66Z" stroke="#09533C" stroke-width="2" stroke-linejoin="round"/>
<path d="M186 97L166 76.5L145 98.5L165 119L186 97Z" stroke="#09533C" stroke-width="2" stroke-linejoin="round"/>
<path d="M141.5 51.5L122.5 32.5L101.5 54L120.5 73L141.5 51.5Z" stroke="#09533C" stroke-width="2" stroke-linejoin="round"/>
<path d="M149 84L134 69L119.5 84L134.5 99L149 84Z" stroke="#09533C" stroke-width="2" stroke-linejoin="round"/>
<path d="M127 66.5L131.5 71" stroke="#09533C" stroke-width="2"/>
<path d="M136 70.5L139 67.5" stroke="#09533C" stroke-width="2"/>
<path d="M135.5 58L140 62.5" stroke="#09533C" stroke-width="2"/>
<path d="M163.5 62.5L168.5 57.5" stroke="#09533C" stroke-width="2"/>
<path d="M160 48.5L155 53.5" stroke="#09533C" stroke-width="2"/>
<path d="M155 108.5L176 87" stroke="#09533C" stroke-width="2"/>
<path d="M155.5 87.5L175.5 108" stroke="#09533C" stroke-width="2"/>
<path d="M147 82L150.5 78.5L152.5 80.5L154.5 78.5L159 83.5L151 92L146.5 87" stroke="#09533C" stroke-width="2"/>
<path d="M111 63.5L132 42" stroke="#09533C" stroke-width="2"/>
<path d="M112 43L131 62.5" stroke="#09533C" stroke-width="2"/>
<path d="M38.5 67.5L39.5 65.5L40.5 63.5" stroke="#09533C" stroke-width="2" stroke-linecap="round"/>
<path d="M34.5 129L33.5 125.5" stroke="#09533C" stroke-width="2" stroke-linecap="round"/>
<path d="M43 147L41 144L38 138.5" stroke="#09533C" stroke-width="2" stroke-linecap="round"/>
<path d="M55.5 162.5L53 160L49 155.5" stroke="#09533C" stroke-width="2" stroke-linecap="round"/>
<path d="M66.5 171.5L63 169" stroke="#09533C" stroke-width="2" stroke-linecap="round"/>
<path d="M173.5 160.5L168 166" stroke="#09533C" stroke-width="2" stroke-linecap="round"/>
<path d="M184 147L179.5 153.5" stroke="#09533C" stroke-width="2" stroke-linecap="round"/>
<path d="M191.5 131.5L188.5 139" stroke="#09533C" stroke-width="2" stroke-linecap="round"/>
<path d="M45 56L47 53.5L50.5 49" stroke="#09533C" stroke-width="2" stroke-linecap="round"/>
<path d="M57 42.5L60 40L64 36.5" stroke="#09533C" stroke-width="2" stroke-linecap="round"/>
<path d="M71.5 31.5L75.5 29.5L79.5 27.5" stroke="#09533C" stroke-width="2" stroke-linecap="round"/>
<path d="M88 24.5L92.5 23L96.5 22" stroke="#09533C" stroke-width="2" stroke-linecap="round"/>
<path d="M105.5 20.5L110 20.5L114.5 20.5" stroke="#09533C" stroke-width="2" stroke-linecap="round"/>
<path d="M141 25L145 26.5M189 69L190.5 72.5M193.5 81L194 83.5L195 89" stroke="#09533C" stroke-width="2" stroke-linecap="round"/>
<path d="M123.61 20.0061C123.062 19.9451 122.567 20.3407 122.506 20.8896C122.445 21.4385 122.841 21.9329 123.39 21.9939L123.61 20.0061ZM131.757 23.4701C132.293 23.6041 132.836 23.2783 132.97 22.7425C133.104 22.2067 132.778 21.6638 132.243 21.5298L131.757 23.4701ZM128 21.5L128.243 20.5299C128.199 20.519 128.155 20.5111 128.11 20.5061L128 21.5ZM123.39 21.9939L127.89 22.4939L128.11 20.5061L123.61 20.0061L123.39 21.9939ZM127.757 22.4701L131.757 23.4701L132.243 21.5298L128.243 20.5299L127.757 22.4701Z" fill="#09533C"/>
<path d="M196.5 97.5C196.668 100.891 196.646 102.743 196.5 106M195.5 114.5C195.186 117.721 194.85 119.584 194 123" stroke="#09533C" stroke-width="2" stroke-linecap="round" stroke-linejoin="round"/>
<path d="M160.5 171.5L157 174" stroke="#09533C" stroke-width="2" stroke-linecap="round"/>
</svg>
