<svg width="714" height="695" viewBox="0 0 714 695" fill="none" xmlns="http://www.w3.org/2000/svg">
<rect x="33" y="33" width="648" height="628.309" rx="48" stroke="white" stroke-width="66" stroke-linejoin="round"/>
<path d="M208 426.5L151 550L279.5 494.5" stroke="white" stroke-width="40"/>
<path d="M217.961 507.481C259.725 543.383 313.815 561.732 368.859 558.67C423.903 555.608 475.613 531.373 513.117 491.061C550.621 450.749 570.998 397.5 569.962 342.51C568.927 287.519 546.561 235.071 507.566 196.192C468.571 157.314 415.986 135.033 360.865 134.035C305.745 133.037 252.383 153.399 212 190.841C171.617 228.282 147.358 279.886 144.323 334.803C141.289 389.719 159.715 443.671 195.728 485.314L211.672 445.002C185.047 409.586 181.061 381.751 183.537 336.959C183.537 294.482 205.798 250.079 238.735 219.541C271.673 189.003 315.195 172.395 360.153 173.209C405.11 174.023 448 192.196 479.805 223.906C511.61 255.616 529.852 298.394 530.697 343.245C531.541 388.097 514.921 431.528 484.332 464.407C453.743 497.286 413.754 519.979 368.859 522.476C323.964 524.974 291.22 520.769 257.156 491.487L217.961 507.481Z" fill="white"/>
<path d="M217.961 507.481C259.725 543.383 313.815 561.732 368.859 558.67C423.903 555.608 475.613 531.373 513.117 491.061C550.621 450.749 570.998 397.5 569.962 342.51C568.927 287.519 546.561 235.071 507.566 196.192C468.571 157.314 415.986 135.033 360.865 134.035C305.745 133.037 252.383 153.399 212 190.841C171.617 228.282 147.358 279.886 144.323 334.803C141.289 389.719 159.715 443.671 195.728 485.314L211.672 445.002C185.047 409.586 181.061 381.751 183.537 336.959C183.537 294.482 205.798 250.079 238.735 219.541C271.673 189.003 315.195 172.395 360.153 173.209C405.11 174.023 448 192.196 479.805 223.906C511.61 255.616 529.852 298.394 530.697 343.245C531.541 388.097 514.921 431.528 484.332 464.407C453.743 497.286 413.754 519.979 368.859 522.476C323.964 524.974 291.22 520.769 257.156 491.487L217.961 507.481Z" stroke="black"/>
<path d="M278 284V318.338L284.657 346.031L296.861 364.862L327.927 398.092L357.883 419.138L380.073 428H410.029L430 421.354" stroke="white" stroke-width="48"/>
<path d="M256.25 272.015L254 284.2H301.25V285.308V299.708V313L303.5 308.569L306.875 306.354L313.625 299.708L318.125 296.385L322.625 289.738L324.875 281.985L326 274.231L324.875 268.692L322.625 264.262L319.25 258.723L315.875 255.4L311.375 250.969L305.75 246.538L301.25 243.215L295.625 241H293.375H282.125L276.5 242.108L272 244.323L266.375 248.754L261.875 257.615L256.25 272.015Z" fill="white"/>
<path d="M405.667 396.283L398 404.1L405.667 414.15L413.333 451H417.714H425.381L435.238 449.883L446.19 446.533L454.952 442.067L460.429 438.717L463.714 434.25L465.905 428.667L467 424.2V418.617V413.033L465.905 408.567L463.714 405.217L459.333 399.633L453.857 392.933L447.286 387.35L440.714 385.117L435.238 384H424.286L418.81 385.117L413.333 389.583L405.667 396.283Z" fill="white"/>
<path d="M239.12 523.407C283.173 552.679 336.541 564.513 388.838 556.607C441.135 548.701 488.62 521.621 522.052 480.635C555.485 439.65 572.472 387.692 569.709 334.873C566.946 282.054 544.63 232.152 507.105 194.879C469.579 157.605 419.528 135.627 366.691 133.221C313.854 130.814 262.012 148.152 221.254 181.86C180.495 215.568 153.736 263.235 146.183 315.584C138.63 367.933 150.824 421.22 180.392 465.075L227.233 433.493C205.507 401.27 196.547 362.116 202.096 323.651C207.646 285.186 227.308 250.161 257.257 225.393C287.205 200.626 325.298 187.886 364.121 189.654C402.944 191.422 439.72 207.572 467.294 234.959C494.867 262.347 511.264 299.014 513.294 337.824C515.324 376.635 502.842 414.812 478.277 444.927C453.712 475.042 418.821 494.94 380.394 500.749C341.967 506.559 302.754 497.863 270.384 476.355L239.12 523.407Z" fill="white"/>
</svg>
